<?xml version="1.0" encoding="UTF-8" standalone="no"?>
<!-- Created with Inkscape (http://www.inkscape.org/) -->

<svg
   width="186.14902mm"
   height="46.187782mm"
   viewBox="0 0 186.14902 46.187782"
   version="1.1"
   id="svg1"
   xmlns="http://www.w3.org/2000/svg"
   xmlns:svg="http://www.w3.org/2000/svg">
  <defs
     id="defs1" />
  <g
     id="layer1"
     transform="translate(-10.899735,-4.470896)">
    <path
       d="m 22.411227,40.264787 q -3.2004,0 -5.842,-1.1684 -2.5908,-1.1176 -3.8608,-2.9972 -0.8636,-1.3208 -1.27,-2.6416 -0.4064,-1.3716 -0.4064,-2.794 0,-2.1336 0.7112,-4.1656 0.7112,-2.0828 1.8288,-3.9624 1.1684,-1.9304 2.3368,-3.4544 2.1844,-2.8448 5.1816,-5.334 2.9972,-2.4892 6.299199,-4.2671995 3.302,-1.8288 6.4008,-2.4384 0.8636,-0.2032 2.032,-0.2032 2.3368,0 4.3688,1.1684 2.032,1.1684 2.4384,3.7083995 0,0.762 -0.6604,1.27 -0.6096,0.508 -1.1684,0.508 -0.8128,0 -0.8128,-0.8636 v -0.0508 q 0,-1.1684 -1.4224,-2.1844 -1.3716,-1.0667995 -3.2512,-1.0667995 -0.254,0 -0.5588,0.0508 -0.254,0 -0.508,0.0508 -2.6416,0.508 -5.7404,2.1843995 -3.048,1.6764 -5.892799,4.0132 -2.794,2.3368 -4.7752,4.9276 -1.7272,2.2352 -2.9972,5.0292 -1.27,2.7432 -1.27,5.2832 0,2.2352 1.1176,3.8608 0.8128,1.1176 2.9972,2.1336 2.1844,0.9652 4.9276,0.9652 1.3208,0 2.692399,-0.3048 3.1496,-0.762 4.9276,-1.7272 1.8288,-1.016 2.8448,-2.032 1.0668,-1.016 1.8796,-1.6764 0.3048,-0.1524 0.508,-0.1524 0.6096,0 0.6096,0.9144 0,0.508 -0.254,1.0668 -0.2032,0.5588 -0.7112,0.8636 -0.3556,0.2032 -1.2192,1.2192 -0.8636,0.9652 -2.7432,2.0828 -1.8796,1.1684 -5.2832,1.8288 -0.863599,0.2032 -1.727199,0.254 -0.8636,0.1016 -1.7272,0.1016 z m 23.012313,-3.9116 q -1.4224,0 -2.794,-0.6096 -1.3208,-0.6096 -2.1844,-1.6764 -0.8636,-1.0668 -0.8636,-2.4384 0,-2.032 1.0668,-3.556 1.0668,-1.524 2.6924,-2.5908 1.6764,-1.0668 3.4036,-1.6256 1.6764,-0.5588 3.6576,-0.5588 2.0828,0 4.0132,0.762 1.9812,0.7112 2.794,2.4892 0.4064,-1.3208 0.6096,-2.5908 0.2032,-1.3208 0.2032,-2.286 0,-1.6256 -0.6604,-2.4892 -0.6096,-0.8636 -2.2352,-0.8636 -0.6604,0 -1.524,0.508 -0.8636,0.4572 -1.6764,1.2192 -0.3048,0.3048 -0.4572,0.4064 -0.1016,0.1016 -0.5588,0.1016 -0.508,0 -0.8128,-0.3556 -0.254,-0.3556 -0.254,-0.8128 0,-0.6096 0.4572,-1.0668 0.4572,-0.4572 1.016,-1.016 0.5588,-0.5588 1.4224,-0.9652 0.9144,-0.4572 2.286,-0.4572 2.8448,0 4.1656,1.3208 1.3208,1.3208 1.3208,4.318 0,1.4732 -0.4064,3.048 -0.3556,1.5748 -0.8636,3.3528 -0.3048,1.1176 -0.8636,2.54 -0.508,1.3716 -1.3208,2.7432 -0.8128,1.3716 -1.9812,2.3368 -0.3556,0.3048 -0.762,0.3048 -0.508,0 -0.8636,-0.3556 -0.3556,-0.3556 -0.3556,-0.8128 0,-0.4572 0.4572,-0.9144 0.5588,-0.4572 1.1684,-1.4732 0.6604,-1.016 1.2192,-2.54 -0.1524,-2.0828 -1.9812,-3.048 -1.778,-0.9652 -3.9624,-0.9652 -1.27,0 -2.4384,0.3048 -1.27,0.3556 -2.54,1.2192 -1.27,0.8128 -2.1336,1.9304 -0.8128,1.1176 -0.8128,2.3368 0,0.9652 0.9652,1.7272 1.016,0.762 2.3876,0.762 1.1684,0 1.8288,-0.0508 0.7112,-0.0508 1.3208,-0.3048 0.6604,-0.3048 1.6764,-1.0668 0.4572,-0.3048 0.762,-0.3048 0.4064,0 0.6604,0.254 0.254,0.254 0.254,0.6604 0,0.5588 -0.5588,0.9652 -1.7272,1.4224 -3.048,1.8288 -1.27,0.3556 -2.8956,0.3556 z m 19.811984,0.3048 q -0.4572,0 -0.8636,-0.3556 -0.3556,-0.4064 -0.3556,-1.3208 0,-0.2032 0,-0.4064 0.0508,-0.254 0.1016,-0.508 0.4572,-2.2352 1.1684,-4.7244 0.762,-2.4892 1.524,-4.6736 0.762,-2.2352 1.1176,-3.5052 0.254,-0.8128 0.7112,-1.1684 0.508,-0.3556 1.016,-0.3556 0.5588,0 0.9144,0.3556 0.4064,0.3048 0.4064,0.8636 0,0.4572 -0.3048,1.016 -0.3048,0.5588 -0.762,1.778 -0.4064,1.2192 -0.8128,2.4384 -0.4064,1.2192 -0.7112,1.8288 1.778,-1.7272 3.2004,-2.8448 1.4224,-1.1176 3.7592,-2.1844 1.016,-0.508 2.6416,-0.508 1.1684,0 2.3368,0.4572 1.1684,0.4572 1.9304,1.6256 0.762,1.1684 0.762,3.302 0,0.8128 -0.9144,0.8128 -0.3556,0 -0.762,-0.3048 -0.3556,-0.3048 -0.6096,-1.016 -0.3556,-1.1684 -1.1176,-1.8288 -0.7112,-0.7112 -1.8796,-0.7112 -0.7112,0 -1.6256,0.3048 -1.1176,0.3556 -2.794,1.3716 -1.6764,0.9652 -3.4544,2.4384 -1.7272,1.4732 -3.2004,3.3528 0,0.3556 -0.1524,0.8128 -0.1016,0.4572 -0.1016,1.016 0,0.1016 0.1016,0.508 0.1016,0.4064 0.1016,0.8128 0,0.5588 -0.4572,0.9652 -0.4064,0.3556 -0.9144,0.3556 z m 29.057628,0.3556 q -2.794,0 -4.8768,-0.9652 -2.032,-0.9652 -3.2004,-2.4892 -1.1176,-1.5748 -1.1176,-3.3528 0,-0.9144 0.3048,-1.8796 0.3556,-0.9652 1.0668,-1.8288 0.9144,-1.1684 2.286,-2.54 1.4224,-1.3716 3.2004,-2.5908 1.8288,-1.2192 4.0132,-1.9812 2.1844,-0.8128 4.673598,-0.8128 1.8288,0 2.4892,0.3048 0.7112,0.3048 0.9652,0.8128 0.254,0.4572 0.6096,0.9144 0.6096,-1.9304 1.4224,-4.064 0.8128,-2.1336 1.5748,-4.0132 0.762,-1.8796 1.2192,-3.0479995 0.3048,-0.6604 0.7112,-1.5748 0.4572,-0.9652 0.762,-1.6764 0.3556,-0.762 0.3556,-0.762 0.3556,-0.8636 1.3208,-0.8636 0.7112,0 1.3208,0.508 0.6096,0.508 0.6096,1.2192 0,0.508 -0.4064,1.0668 h -0.0508 q 0,0 -0.4572,0.508 -0.4572,0.4572 -1.016,1.1684 -0.508,0.7112 -0.762,1.3207995 -0.6096,1.524 -1.524,3.6068 -0.8636,2.032 -1.778,4.4704 -0.9144,2.4384 -1.6256,4.9784 -0.6604,2.4892 -0.8128,4.9276 -0.0508,0.3556 -0.3556,0.5588 -0.3048,0.2032 -0.7112,0.2032 -0.5588,0 -1.016,-0.254 -0.4572,-0.3048 -0.3556,-0.8128 0.254,-0.7112 0.3048,-1.4224 0.1016,-0.762 0.1016,-1.4224 0,-1.4224 -0.4572,-2.4384 -0.4064,-1.0668 -1.3208,-1.3208 -0.4064,-0.1524 -0.8636,-0.2032 -0.4572,-0.0508 -0.914398,-0.0508 -1.6256,0 -3.302,0.762 -1.6764,0.7112 -3.2004,1.8796 -1.4732,1.1176 -2.6924,2.3368 -1.2192,1.2192 -1.9304,2.2352 -0.7112,0.9652 -0.7112,2.0828 0,1.3208 1.27,2.54 1.27,1.1684 4.3688,1.4224 0.254,0.0508 0.508,0.0508 0.254,0 0.5588,0 2.0828,0 4.318,-0.508 2.285998,-0.5588 4.013198,-1.27 1.3716,-0.5588 2.4384,-1.3208 1.0668,-0.762 1.8796,-1.4732 0.4064,-0.3556 0.8636,-0.3556 0.4572,0 0.762,0.3556 0.3556,0.3048 0.3556,0.7112 0,0.508 -0.4572,0.9144 -0.8128,0.7112 -2.0828,1.7272 -1.2192,0.9652 -2.9464,1.6764 -2.032,0.8128 -4.724398,1.4224 -2.6924,0.6096 -4.9784,0.6096 z m 35.306038,4.3688 q -1.5748,0 -2.8956,-0.6096 -1.27,-0.5588 -1.5748,-1.9304 0,-0.8636 0.3048,-1.3208 0.3048,-0.4572 0.7112,-0.4572 0.9144,0 1.4732,1.524 0.3048,0.762 2.032,0.762 0.8636,0 2.032,-0.3048 1.1684,-0.254 2.4384,-0.8128 1.3716,-0.6604 3.1496,-1.6764 1.8288,-1.0668 3.5052,-2.4892 1.7272,-1.4732 2.8448,-3.3528 1.1176,-1.9304 1.1176,-4.2672 0,-1.9812 -0.9144,-3.3528 -0.8636,-1.3716 -2.2352,-2.54 -1.3208,-1.2192 -2.6924,-2.6416 -1.3716,-1.4224 -2.286,-3.556 -0.2032,-0.508 -0.3048,-1.016 -0.1016,-0.508 -0.1016,-0.9652 0,-1.4732 0.762,-2.7431995 0.8128,-1.27 1.8796,-2.1336 1.4732,-1.2192 3.302,-1.6256 1.8288,-0.4064 3.7084,-0.4064 0.4064,0 0.8128,0 0.4064,0 0.762,0.0508 1.0668,0.0508 1.524,0.6604 0.508,0.6096 0.6096,1.2192 0.1524,0.5588 0.1524,0.6096 0.2032,0.3556 0.2032,0.6604 0,0.8636 -1.0668,0.8636 -0.6096,0 -1.1684,-0.4064 l -1.6764,-1.27 q -0.2032,-0.1524 -0.508,-0.1524 -0.3048,-0.0508 -0.7112,-0.0508 -0.9652,0 -2.2352,0.3556 -1.27,0.3048 -1.9304,0.8636 -0.6604,0.6096 -1.016,1.4731995 -0.3048,0.8128 -0.3048,1.6764 0,0.7112 0.254,1.3716 0.5588,1.6764 1.8288,2.9972 1.3208,1.3208 2.7432,2.6924 1.4732,1.3208 2.4892,2.9972 1.016,1.6256 1.016,3.8608 0,2.2352 -0.9652,4.2164 -0.9652,1.9812 -2.54,3.6576 -1.524,1.6256 -3.302,2.9464 -1.778,1.27 -3.4036,2.1844 -1.6256,0.9144 -2.7432,1.3716 -1.016,0.4572 -2.3876,0.762 -1.3716,0.3048 -2.6924,0.3048 z m 20.62478,9.144 q -0.8128,0 -1.5748,-0.6604 -0.8128,-0.6604 -0.6604,-2.0828 0.1016,-1.3208 0.7112,-3.556 0.6096,-2.1844 1.524,-4.8768 0.9144,-2.6924 2.032,-5.5372 1.1176,-2.8956 2.2352,-5.588 1.1176,-2.7432 2.1336,-4.9276 1.016,-2.2352 1.7272,-3.6068 0.4572,-0.8128 1.27,-0.8128 0.508,0 0.8636,0.3556 0.3556,0.3048 0.3556,0.9652 0,0.4064 -0.3048,1.3208 -0.3048,0.8636 -0.762,1.4732 -0.7112,0.9144 -1.524,2.286 -0.8128,1.3208 -1.524,2.794 2.6416,-3.7084 5.5372,-5.7912 2.8956,-2.0828 6.2992,-3.048 0.508,-0.1524 0.9652,-0.2032 0.4572,-0.0508 0.8636,-0.0508 2.0828,0 2.9464,1.4224 0.9144,1.4224 0.9144,3.048 0,1.778 -0.762,2.9464 -1.3716,2.794 -3.2004,4.6228 -1.8288,1.778 -3.9624,2.9464 -2.0828,1.1176 -4.3688,2.0828 -1.1176,0.508 -1.9812,0.7112 -0.8128,0.1524 -1.4224,0.1524 -0.9144,0 -1.27,-0.4064 -0.3556,-0.4064 -0.3556,-0.9144 0,-0.7112 0.4064,-1.3208 0.4064,-0.6096 0.762,-0.508 0.3556,0.0508 0.8636,0.1524 0.508,0.1016 1.0668,0.1016 1.3208,0 2.2352,-0.4572 1.4732,-0.762 3.048,-1.7272 1.6256,-0.9652 3.1496,-2.4892 1.5748,-1.5748 2.7432,-4.0132 0.3048,-0.8636 0.3048,-1.6764 0,-0.8636 -0.4572,-1.4732 -0.4064,-0.6096 -1.4224,-0.6096 -1.6764,0 -4.2672,1.524 -2.5908,1.4732 -5.4356,4.1656 -2.8448,2.6924 -5.3848,6.2484 -1.1176,2.8448 -2.0828,5.588 -0.9144,2.7432 -1.4732,4.8768 -0.5588,2.1844 -0.6604,3.2004 -0.0508,0.5588 0.6096,1.1684 0.6604,0.6096 0.6604,1.2192 0,0.4064 -0.508,0.762 -0.254,0.2032 -0.8636,0.2032 z m 29.87043,-0.5588 q -0.8636,0 -1.6256,-0.2032 -1.016,-0.3048 -1.6256,-1.0668 -0.6096,-0.762 -0.6096,-1.5748 0,-0.8636 0.1016,-1.1684 0.1016,-0.3048 0.4572,-0.3048 0.3048,0 1.0668,0.1524 0.4064,0 0.8128,0.6604 0.4064,0.7112 0.9144,0.9652 0.6604,0.254 1.1176,0.254 0.9144,0 1.6764,-0.4572 0.8128,-0.4572 1.3716,-0.9652 1.8288,-1.5748 3.1496,-3.2512 1.3208,-1.6764 2.4384,-3.81 1.1684,-2.0828 2.286,-4.8768 0.3556,-0.8128 0.6604,-1.8796 0.3556,-1.1176 0.5588,-2.0828 0.254,-1.016 0.2032,-1.4732 -0.254,0.2032 -0.5588,0.4572 -0.254,0.254 -0.5588,0.508 -1.1684,1.0668 -2.794,2.1336 -1.5748,1.0668 -3.3528,1.778 -1.778,0.7112 -3.6576,0.7112 -1.6764,0 -3.1496,-0.6604 -1.7272,-0.8128 -2.4384,-2.1336 -0.7112,-1.3208 -0.7112,-2.794 0,-0.7112 0.1016,-1.3716 0.1524,-0.6604 0.3556,-1.3208 0.4064,-1.4224 1.4732,-2.5908 1.0668,-1.2192 2.3876,-2.032 1.3208,-0.8128 2.54,-1.0668 0.1016,-0.0508 0.254,-0.0508 0.1524,0 0.254,0 0.7112,0 1.1684,0.4064 0.4572,0.3556 0.4572,0.762 0,0.508 -0.7112,0.8128 -1.2192,0.4572 -2.1844,0.9144 -0.9144,0.4572 -1.6256,1.2192 -0.6604,0.762 -1.2192,2.2352 -0.1524,0.4064 -0.254,0.9652 -0.1016,0.5588 -0.1016,1.1684 0,0.9652 0.3048,1.8796 0.3556,0.9144 1.1684,1.1684 1.016,0.3048 1.9812,0.3048 2.2352,0 4.3688,-1.1684 2.1844,-1.2192 3.81,-2.5908 2.2352,-1.778 2.8448,-2.9464 0.6604,-1.2192 0.9144,-2.0828 0.1524,-0.5588 0.5588,-0.762 0.4064,-0.254 0.8636,-0.254 0.5588,0 1.016,0.4064 0.508,0.3556 0.3048,0.9652 -0.762,2.794 -1.6256,6.1468 -0.8128,3.3528 -2.1336,6.7564 -1.27,3.4036 -3.3528,6.4516 -2.0828,3.0988 -5.334,5.3848 -0.8128,0.5588 -1.9304,0.9652 -1.1176,0.4064 -2.3876,0.4064 z"
       id="text1"
       style="font-size:50.8px;font-family:'Grape Nuts';-inkscape-font-specification:'Grape Nuts';fill:#ffffff;stroke:#ffffff;stroke-width:0.264583"
       aria-label="Card Spy" />
  </g>
</svg>
